<svg width="320" height="271" viewBox="0 0 320 271" fill="none" xmlns="http://www.w3.org/2000/svg">
<g clip-path="url(#clip0_103_562)">
<path d="M266.428 216.548H200.629L167.777 256.188C166.614 257.591 165.149 258.715 163.491 259.477C161.833 260.238 160.024 260.618 158.198 260.588C156.373 260.557 154.578 260.117 152.946 259.301C151.314 258.484 149.888 257.312 148.772 255.871L118.358 216.548H53.2426C24.0188 216.548 0.331055 192.933 0.331055 163.803V52.8728C0.331055 23.7425 24.0189 0.126953 53.2404 0.126953H266.431C295.65 0.126953 319.338 23.7425 319.338 52.8728V163.803C319.335 192.933 295.648 216.548 266.428 216.548Z" fill="url(#paint0_linear_103_562)"/>
<path d="M220.57 126.402L169.927 171.145C167.894 172.94 165.273 173.931 162.557 173.931C159.842 173.931 157.22 172.94 155.188 171.145L104.544 126.402C53.7843 81.666 116.996 15.9622 162.557 68.5659C202.14 12.6626 266.674 82.1121 220.57 126.402Z" fill="white"/>
</g>
<defs>
<linearGradient id="paint0_linear_103_562" x1="159.834" y1="0.126953" x2="159.834" y2="260.589" gradientUnits="userSpaceOnUse">
<stop stop-color="#D59AF9"/>
<stop offset="1" stop-color="#816DC8"/>
</linearGradient>
<clipPath id="clip0_103_562">
<rect width="319" height="270" fill="white" transform="translate(0.333496 0.126953)"/>
</clipPath>
</defs>
</svg>
