<svg width="22" height="20" viewBox="0 0 22 20" fill="none" xmlns="http://www.w3.org/2000/svg">
<path d="M17.9972 19.0512C17.9972 19.6705 17.685 19.9629 17.13 19.6705L12.3948 17.314C12.0692 17.1734 11.7179 17.1008 11.3628 17.1008C11.0077 17.1008 10.6563 17.1734 10.3308 17.314L5.57828 19.636C5.00589 19.9112 4.60696 19.6361 4.71103 19.0168L5.50888 13.8568C5.54591 13.505 5.50959 13.1493 5.40217 12.812C5.29475 12.4747 5.11854 12.1629 4.88446 11.896L1.19002 8.14631C0.739051 7.68191 0.895133 7.23471 1.51955 7.13151L6.72302 6.2887C7.07998 6.2168 7.41821 6.07279 7.71661 5.86565C8.01502 5.65851 8.2672 5.39267 8.45751 5.08468L10.9205 0.440637C11.2154 -0.109769 11.701 -0.109769 11.9785 0.440637L14.4068 5.11909C14.5963 5.42775 14.8483 5.6941 15.1468 5.90134C15.4454 6.10857 15.784 6.25218 16.1413 6.3231L21.3448 7.21752C21.9692 7.32072 22.1253 7.78512 21.6743 8.23232L17.8758 11.8616C17.6451 12.1277 17.4696 12.4364 17.3595 12.7699C17.2494 13.1034 17.2067 13.4553 17.234 13.8052L17.9972 19.0512Z" fill="url(#paint0_radial_103_549)"/>
<defs>
<radialGradient id="paint0_radial_103_549" cx="0" cy="0" r="1" gradientUnits="userSpaceOnUse" gradientTransform="translate(4.48554 20.0317) scale(21.8893 21.7066)">
<stop offset="0.35" stop-color="#FFC200"/>
<stop offset="0.51" stop-color="#FFBD07"/>
<stop offset="0.72" stop-color="#FFAF19"/>
<stop offset="0.98" stop-color="#FF9737"/>
<stop offset="1" stop-color="#FF953A"/>
</radialGradient>
</defs>
</svg>
